<svg width="43" height="38" viewBox="0 0 43 38" fill="none" xmlns="http://www.w3.org/2000/svg">
<g clip-path="url(#clip0_2_1654)">
<path fill-rule="evenodd" clip-rule="evenodd" d="M21.8091 34.2753L23.5743 33.5555C23.4762 33.3127 23.1863 33.1453 22.8409 33.1453C22.3996 33.1432 21.7878 33.5262 21.8091 34.2753ZM23.8813 34.9721L24.555 35.4115C24.3375 35.7275 23.8152 36.2715 22.9091 36.2715C21.7878 36.2715 20.9777 35.4199 20.9777 34.3339C20.9777 33.1809 21.7942 32.3962 22.8132 32.3962C23.7491 32.4276 24.3311 33.0198 24.5933 33.8484L21.9498 34.9198C22.1523 35.309 22.4657 35.5078 22.907 35.5078C23.3462 35.5078 23.6532 35.2943 23.877 34.9721M19.5919 36.1544H20.4596V30.4627H19.5919V36.1544ZM18.1764 34.3402C18.1764 33.658 17.7116 33.1579 17.1211 33.1579C16.5242 33.1579 16.021 33.658 16.021 34.3402C16.021 35.016 16.522 35.5078 17.1211 35.5078C17.7138 35.5078 18.1764 35.016 18.1764 34.3402ZM18.9396 32.5134V35.987C18.9396 37.4182 18.0804 38.0062 17.0635 38.0062C16.1063 38.0062 15.5307 37.3743 15.3133 36.8616L16.0679 36.554C16.2023 36.87 16.5327 37.2446 17.0635 37.2446C18.0335 37.1364 18.1188 36.5206 18.1188 35.8279H18.0868C17.8928 36.0623 17.5176 36.2695 17.0465 36.2695C16.0594 36.2695 15.1534 35.4262 15.1534 34.3381C15.1534 33.2437 16.0573 32.392 17.0465 32.392C17.5176 32.392 17.8928 32.5971 18.0868 32.8252H18.1167V32.5092C18.1167 32.5071 18.9396 32.5071 18.9396 32.5071V32.5134ZM9.47404 34.3339C9.47404 33.6371 8.96666 33.16 8.38039 33.16C7.79199 33.16 7.28674 33.6371 7.28674 34.3339C7.28674 35.0244 7.79412 35.5078 8.38039 35.5078C8.96666 35.5078 9.47404 35.0223 9.47404 34.3339ZM10.3268 34.3339C10.3268 35.4492 9.45273 36.2715 8.38039 36.2715C7.30806 36.2715 6.43399 35.4492 6.43399 34.3339C6.43399 33.2102 7.30806 32.3962 8.38039 32.3962C9.45273 32.3962 10.3268 33.2102 10.3268 34.3339ZM13.8444 34.3339C13.8444 33.6371 13.337 33.16 12.7507 33.16C12.1623 33.16 11.6571 33.6371 11.6571 34.3339C11.6571 35.0244 12.1645 35.5078 12.7507 35.5078C13.337 35.5078 13.8444 35.0223 13.8444 34.3339ZM14.6971 34.3339C14.6971 35.4492 13.8231 36.2715 12.7507 36.2715C11.6784 36.2715 10.8043 35.4492 10.8043 34.3339C10.8043 33.2102 11.6784 32.3962 12.7507 32.3962C13.8231 32.3962 14.6971 33.2102 14.6971 34.3339ZM3.09973 36.2715C1.41128 36.2715 -0.0128174 34.9198 -0.0128174 33.2583C-0.0128174 31.599 1.40915 30.2451 3.09973 30.2451C4.03562 30.2451 4.70077 30.605 5.20176 31.0758L4.61123 31.6555C4.25307 31.3249 3.767 31.0675 3.09973 31.0675C1.86537 31.0675 0.903891 32.0447 0.903891 33.2437C0.903891 34.4552 1.86963 35.4199 3.09973 35.4199C3.89918 35.4199 4.3554 35.1039 4.64747 34.8173C4.88624 34.5829 5.044 34.2439 5.10369 33.7815H3.09973V32.9591H5.91381C5.94365 33.1056 5.95858 33.2813 5.95858 33.4718C5.95858 34.0891 5.78589 34.8528 5.23374 35.3948C4.6965 35.9493 4.00791 36.2443 3.10186 36.2443" fill="#5F6368"/>
<path d="M26.6301 36.1113V31.0515H27.2959L29.0862 34.1333H29.1132L30.9035 31.0515H31.5692V36.1113H30.9037L30.9307 32.2613H30.9037L29.2933 35.034H28.9065L27.2961 32.2613H27.2691C27.3182 33.5419 27.2961 34.8309 27.2961 36.1113H26.6301ZM33.6474 36.1996C33.2696 36.1996 32.9637 36.0937 32.7118 35.8817C32.4599 35.6698 32.3339 35.3872 32.3339 35.0426C32.3339 34.6629 32.4869 34.3715 32.7838 34.1596C33.0806 33.9477 33.4495 33.8417 33.8813 33.8417C34.2682 33.8417 34.5921 33.9124 34.835 34.0536C34.8285 33.3192 34.3114 33.1176 33.9083 33.1176C33.5278 33.1354 33.1976 33.2916 33.0626 33.6209L32.4599 33.3649C32.5408 33.1618 32.7028 32.9673 32.9457 32.7909C33.1886 32.6145 33.5035 32.526 33.8993 32.526C34.3491 32.526 34.727 32.6584 35.0239 32.9145C35.3208 33.1706 35.4737 33.5415 35.4737 34.0095V36.1023H34.844V35.6255C34.5498 35.9875 34.1521 36.1915 33.6474 36.1994V36.1996ZM34.835 34.5925C34.4472 34.3029 33.6384 34.2667 33.2606 34.566C32.9637 34.8486 32.9322 35.2274 33.2426 35.4491C33.9929 35.9215 34.862 35.1859 34.835 34.5925ZM38.0557 36.1996C37.7858 36.1996 37.5429 36.1467 37.336 36.0319C37.1291 35.9171 36.9671 35.7758 36.8592 35.608H36.8232L36.8502 36.0848V37.6125H36.1934V32.6233H36.8232V33.1002H36.8502C36.9581 32.9324 37.1111 32.7911 37.327 32.6763C37.5429 32.5615 37.7858 32.5085 38.0467 32.5085C38.5055 32.5085 38.8924 32.6851 39.2253 33.0384C39.5581 33.3916 39.7199 33.8331 39.7199 34.3541C39.7199 34.8751 39.5579 35.3166 39.2253 35.6698C38.9014 36.023 38.5055 36.1996 38.0557 36.1996ZM37.9478 35.5992C38.2536 35.5992 38.5145 35.4844 38.7395 35.2548C38.9644 35.0252 39.0723 34.725 39.0723 34.3453C39.0723 33.9655 38.9644 33.6653 38.7395 33.4357C38.5145 33.2061 38.2536 33.0913 37.9478 33.0913C37.6329 33.0913 37.372 33.2061 37.1561 33.4269C36.9401 33.6565 36.8322 33.9567 36.8322 34.3364C36.8322 34.7161 36.9401 35.0252 37.1561 35.246C37.372 35.4932 37.6329 35.5992 37.9478 35.5992ZM41.6543 36.1996C41.2585 36.1996 40.9346 36.1025 40.6827 35.9171C40.4218 35.7316 40.2419 35.4932 40.1159 35.2106L40.7097 34.9722C40.8986 35.4049 41.2135 35.6257 41.6633 35.6257C41.8702 35.6257 42.0412 35.5817 42.1671 35.4932C42.3021 35.4049 42.3651 35.2901 42.3651 35.14C42.3651 34.9104 42.2031 34.7603 41.8792 34.6808L41.1685 34.513C40.9436 34.46 40.7277 34.3453 40.5298 34.1951C40.3318 34.045 40.2239 33.8243 40.2239 33.5593C40.2239 33.2503 40.3588 33.003 40.6377 32.8176C40.9166 32.6233 41.2405 32.535 41.6183 32.535C41.9332 32.535 42.2121 32.6057 42.455 32.747C42.6979 32.8882 42.8779 33.0825 42.9768 33.3474L42.401 33.577C42.2751 33.2679 42.0052 33.1178 41.5914 33.1178C41.3934 33.1178 41.2315 33.1618 41.0968 33.2415C40.962 33.3211 40.8988 33.4269 40.8988 33.5682C40.8988 33.7624 41.0518 33.9037 41.3667 33.9744L42.0684 34.1333C42.4013 34.2128 42.6442 34.3364 42.8061 34.5219C42.968 34.7073 43.04 34.9104 43.04 35.14C43.04 35.4491 42.9141 35.714 42.6532 35.9171C42.4013 36.0937 42.0684 36.1996 41.6545 36.1996H41.6543Z" fill="#63666A"/>
<path d="M17.7159 19.0397C18.5239 20.0315 19.3468 21.2787 19.7775 22.032C20.3019 23.0113 20.5194 23.6725 20.9095 24.8569C21.1376 25.5056 21.3551 25.7022 21.8113 25.7022C22.3101 25.7022 22.5383 25.3716 22.7131 24.8569C23.0776 23.7458 23.359 22.9004 23.8046 22.0948C25.5229 18.9141 28.3242 16.6542 29.9018 13.5573C29.9018 13.5573 30.94 11.6657 30.94 9.01657C30.94 6.5474 29.9167 4.83154 29.9167 4.83154L17.7223 19.0606L17.7159 19.0397Z" fill="#34A853"/>
<path d="M13.5801 13.2225C14.5629 15.4196 16.4368 17.3447 17.716 19.0397L24.4953 11.1509C24.4953 11.1509 23.5381 12.3813 21.8092 12.3813C19.8819 12.3813 18.3129 10.8747 18.3129 8.9705C18.3129 7.66059 19.1081 6.75244 19.1081 6.75244C14.1195 7.48064 14.3966 8.66709 13.5652 13.2183L13.5801 13.2225Z" fill="#FBBC04"/>
<path d="M24.5806 0.410156C26.8404 1.1237 28.7591 2.62822 29.9103 4.82535L24.4953 11.1657C24.4953 11.1657 25.2905 10.2533 25.2905 8.9476C25.2905 7.00366 23.6191 5.53681 21.8156 5.53681C20.1037 5.53681 19.1294 6.75256 19.1294 6.75256C19.5451 5.82348 23.8408 0.726125 24.587 0.412249L24.5806 0.410156Z" fill="#4285F4"/>
<path d="M14.8165 3.19934C16.1639 1.62578 18.526 -0.00219727 21.7878 -0.00219727C23.3632 -0.00219727 24.5592 0.407935 24.5592 0.407935L19.1229 6.74824C18.7562 6.55301 15.1789 3.81873 14.8165 3.19097V3.19934Z" fill="#1A73E8"/>
<path d="M13.58 13.2227C13.58 13.2227 12.691 11.4901 12.691 8.99579C12.691 6.63125 13.6333 4.55967 14.8229 3.22046L19.1293 6.77773L13.5864 13.2227H13.58Z" fill="#EA4335"/>
</g>
<defs>
<clipPath id="clip0_2_1654">
<rect width="43" height="38" fill="white"/>
</clipPath>
</defs>
</svg>
