<svg width="15" height="15" viewBox="0 0 15 15" fill="none" xmlns="http://www.w3.org/2000/svg">
<path d="M5.36487 2.55628C6.31485 0.852098 6.78983 0 7.5 0C8.21018 0 8.68515 0.85209 9.6351 2.55628L9.88088 2.99717C10.1509 3.48145 10.2858 3.72359 10.4963 3.88336C10.7068 4.04312 10.9688 4.10243 11.4931 4.22104L11.9704 4.32902C13.8151 4.74642 14.7375 4.95512 14.957 5.6608C15.1764 6.36645 14.5476 7.10183 13.2899 8.57242L12.9646 8.9529C12.6072 9.3708 12.4285 9.57975 12.3481 9.83827C12.2678 10.0968 12.2948 10.3756 12.3488 10.9332L12.398 11.4408C12.5881 13.403 12.6832 14.384 12.1087 14.8202C11.5341 15.2563 10.6705 14.8586 8.94323 14.0634L8.49638 13.8576C8.00558 13.6316 7.76018 13.5186 7.5 13.5186C7.23983 13.5186 6.99443 13.6316 6.50363 13.8576L6.05678 14.0634C4.32951 14.8586 3.46589 15.2563 2.89136 14.8202C2.31684 14.384 2.41191 13.403 2.60205 11.4408L2.65124 10.9332C2.70527 10.3756 2.73229 10.0968 2.6519 9.83827C2.57151 9.57975 2.39282 9.3708 2.03544 8.9529L1.71008 8.57242C0.452439 7.10183 -0.176384 6.36645 0.0430665 5.6608C0.262516 4.95512 1.1849 4.74642 3.02966 4.32902L3.50692 4.22104C4.03114 4.10243 4.29325 4.04312 4.50371 3.88336C4.71416 3.72359 4.84915 3.48146 5.1191 2.99717L5.36487 2.55628Z" fill="#FFCC00"/>
</svg>
