<svg width="38" height="38" viewBox="0 0 38 38" fill="none" xmlns="http://www.w3.org/2000/svg">
<path d="M19 2.375C11.1297 2.375 4.75 8.75472 4.75 16.625C4.75 20.5587 6.34386 24.1205 8.92169 26.699C11.5002 29.279 17.575 33.0125 17.9313 36.9313C17.9847 37.5188 18.4101 38 19 38C19.5899 38 20.0153 37.5188 20.0687 36.9313C20.425 33.0125 26.4998 29.279 29.0783 26.699C31.6561 24.1205 33.25 20.5587 33.25 16.625C33.25 8.75472 26.8703 2.375 19 2.375Z" fill="#FF4433"/>
<path d="M19 21.6129C21.7545 21.6129 23.9874 19.3799 23.9874 16.6254C23.9874 13.8709 21.7545 11.6379 19 11.6379C16.2454 11.6379 14.0125 13.8709 14.0125 16.6254C14.0125 19.3799 16.2454 21.6129 19 21.6129Z" fill="white"/>
</svg>
